<svg width="23.000000" height="20.257812" viewBox="0 0 23 20.2578" fill="none" xmlns="http://www.w3.org/2000/svg" xmlns:xlink="http://www.w3.org/1999/xlink">
	<desc>
			Created with Pixso.
	</desc>
	<defs/>
	<path id="6-Check" d="M10.49 20.25C10.42 20.25 10.35 20.24 10.28 20.21C10.22 20.18 10.16 20.14 10.12 20.1L0.13 9.29C0.06 9.22 0.02 9.13 0 9.03C-0.01 8.93 0 8.84 0.04 8.75C0.08 8.66 0.14 8.58 0.22 8.53C0.31 8.47 0.4 8.45 0.5 8.45L5.31 8.45C5.38 8.45 5.45 8.46 5.52 8.49C5.58 8.52 5.64 8.57 5.69 8.62L9.02 12.46C9.38 11.68 10.08 10.4 11.31 8.84C13.12 6.53 16.49 3.13 22.25 0.06C22.37 0 22.5 -0.02 22.62 0.01C22.74 0.04 22.84 0.12 22.91 0.22C22.98 0.33 23.01 0.46 22.99 0.58C22.97 0.71 22.9 0.82 22.8 0.89C22.78 0.92 20.56 2.67 18 5.87C15.64 8.82 12.51 13.64 10.98 19.87C10.95 19.98 10.89 20.08 10.8 20.15C10.71 20.22 10.6 20.25 10.49 20.25L10.49 20.25Z" fill="#8901FF" fill-opacity="1.000000" fill-rule="nonzero"/>
</svg>
