<svg width="24" height="30" viewBox="0 0 24 30" fill="none" xmlns="http://www.w3.org/2000/svg">
<path d="M22.1429 11.4286C23.0957 12.9429 23.5714 14.8486 23.5714 17.1429C23.5714 21.4286 18.5714 22.8571 16.4286 30C15.4757 29.1786 15 27.9886 15 26.4286C15 21.4543 22.1429 18.8714 22.1429 11.4286ZM15.7143 5.71429C16.663 7.46879 17.1543 9.43404 17.1429 11.4286C17.1429 18.5714 8.57143 20 11.4286 30C9.04714 28.3429 7.85714 25.9614 7.85714 22.8571C7.85714 18.1071 15.7143 14.2857 15.7143 5.71429ZM9.28571 0C10.2386 1.90429 10.7143 4.04714 10.7143 6.42857C10.7143 15 -2.14286 17.1429 6.42857 30C2.85714 29.2857 0 25.7143 0 21.4286C0 12.1429 9.28571 10.7143 9.28571 0Z" fill="white"/>
</svg>
