<svg width="33" height="33" viewBox="0 0 33 33" fill="none" xmlns="http://www.w3.org/2000/svg">
<circle cx="16.5" cy="16.5" r="16.5" fill="white" fill-opacity="0.12"/>
<path d="M22.9645 13.8221C22.934 13.1313 22.8224 12.6564 22.6623 12.2449C22.4972 11.8081 22.2433 11.4171 21.9106 11.092C21.5855 10.7619 21.1919 10.5053 20.7601 10.3428C20.3463 10.1828 19.8739 10.0711 19.1831 10.0407C18.4872 10.0076 18.2663 10 16.5013 10C14.7363 10 14.5154 10.0076 13.8221 10.0381C13.1313 10.0686 12.6564 10.1804 12.2451 10.3403C11.8081 10.5053 11.4171 10.7593 11.092 11.092C10.7619 11.4171 10.5055 11.8107 10.3428 12.2424C10.1828 12.6564 10.0711 13.1287 10.0407 13.8195C10.0076 14.5154 10 14.7363 10 16.5013C10 18.2663 10.0076 18.4872 10.0381 19.1805C10.0686 19.8713 10.1804 20.3462 10.3404 20.7577C10.5055 21.1944 10.7619 21.5855 11.092 21.9106C11.4171 22.2407 11.8107 22.4973 12.2425 22.6597C12.6564 22.8197 13.1287 22.9315 13.8196 22.9619C14.5128 22.9925 14.7338 23 16.4988 23C18.2638 23 18.4847 22.9925 19.1781 22.9619C19.8688 22.9315 20.3437 22.8198 20.7551 22.6597C21.1871 22.4927 21.5795 22.2372 21.9071 21.9097C22.2347 21.5821 22.4902 21.1897 22.6573 20.7577C22.8172 20.3437 22.929 19.8713 22.9594 19.1805C22.9899 18.4872 22.9975 18.2663 22.9975 16.5013C22.9975 14.7363 22.9949 14.5154 22.9645 13.8221ZM21.7938 19.1297C21.7658 19.7646 21.6592 20.1075 21.5703 20.336C21.3519 20.9024 20.9024 21.3519 20.336 21.5703C20.1075 21.6592 19.7622 21.7658 19.1297 21.7937C18.4441 21.8243 18.2384 21.8318 16.5039 21.8318C14.7693 21.8318 14.5611 21.8243 13.8779 21.7937C13.243 21.7658 12.9002 21.6592 12.6716 21.5703C12.3898 21.4662 12.1333 21.3011 11.925 21.0852C11.7092 20.8744 11.5441 20.6205 11.4399 20.3386C11.351 20.1101 11.2444 19.7646 11.2165 19.1323C11.186 18.4467 11.1784 18.2409 11.1784 16.5063C11.1784 14.7718 11.186 14.5636 11.2165 13.8805C11.2444 13.2456 11.351 12.9028 11.4399 12.6742C11.5441 12.3922 11.7092 12.1358 11.9276 11.9275C12.1383 11.7116 12.3922 11.5465 12.6742 11.4425C12.9028 11.3536 13.2482 11.247 13.8805 11.219C14.5662 11.1885 14.7719 11.1809 16.5063 11.1809C18.2435 11.1809 18.4491 11.1885 19.1323 11.219C19.7672 11.247 20.1101 11.3536 20.3386 11.4425C20.6204 11.5465 20.877 11.7116 21.0852 11.9275C21.3011 12.1383 21.4662 12.3922 21.5703 12.6742C21.6592 12.9028 21.7658 13.2481 21.7938 13.8805C21.8243 14.5662 21.8319 14.7718 21.8319 16.5063C21.8319 18.2409 21.8243 18.4441 21.7938 19.1297Z" fill="white"/>
<path d="M16.5016 13.1617C14.658 13.1617 13.1621 14.6574 13.1621 16.5012C13.1621 18.345 14.658 19.8407 16.5016 19.8407C18.3454 19.8407 19.8412 18.345 19.8412 16.5012C19.8412 14.6574 18.3454 13.1617 16.5016 13.1617ZM16.5016 18.6674C15.3056 18.6674 14.3353 17.6974 14.3353 16.5012C14.3353 15.305 15.3056 14.3349 16.5016 14.3349C17.6978 14.3349 18.6679 15.305 18.6679 16.5012C18.6679 17.6974 17.6978 18.6674 16.5016 18.6674ZM20.7529 13.0296C20.7529 13.4602 20.4038 13.8092 19.9732 13.8092C19.5426 13.8092 19.1936 13.4602 19.1936 13.0296C19.1936 12.599 19.5426 12.25 19.9732 12.25C20.4038 12.25 20.7529 12.599 20.7529 13.0296Z" fill="white"/>
</svg>
