<svg width="33" height="33" viewBox="0 0 33 33" fill="none" xmlns="http://www.w3.org/2000/svg">
<circle cx="16.5" cy="16.5" r="16.5" fill="white" fill-opacity="0.12"/>
<path d="M22.4483 22.4483V17.8891C22.4483 15.6484 21.9659 13.9368 19.3518 13.9368C18.0914 13.9368 17.2511 14.6214 16.9088 15.275H16.8777V14.1391H14.4036V22.4483H16.9866V18.3248C16.9866 17.2356 17.1889 16.193 18.5271 16.193C19.8497 16.193 19.8653 17.4223 19.8653 18.387V22.4327H22.4483V22.4483ZM10.2023 14.1391H12.7853V22.4483H10.2023V14.1391ZM11.4938 10C10.6691 10 10 10.6691 10 11.4938C10 12.3185 10.6691 13.0031 11.4938 13.0031C12.3185 13.0031 12.9876 12.3185 12.9876 11.4938C12.9876 10.6691 12.3185 10 11.4938 10Z" fill="white"/>
</svg>
