<svg width="18" height="13" viewBox="0 0 18 13" fill="none" xmlns="http://www.w3.org/2000/svg">
<path d="M17.0303 5.96053L11.7802 0.710534C11.6388 0.573916 11.4493 0.49832 11.2527 0.500028C11.0561 0.501737 10.8679 0.580614 10.7289 0.71967C10.5898 0.858726 10.511 1.04684 10.5092 1.24348C10.5075 1.44013 10.5831 1.62958 10.7198 1.77103L14.6895 5.74078H1.5C1.30109 5.74078 1.11032 5.8198 0.96967 5.96045C0.829018 6.10111 0.75 6.29187 0.75 6.49078C0.75 6.6897 0.829018 6.88046 0.96967 7.02111C1.11032 7.16177 1.30109 7.24078 1.5 7.24078H14.6895L10.7198 11.2105C10.6481 11.2797 10.591 11.3625 10.5517 11.454C10.5124 11.5455 10.4917 11.6439 10.4908 11.7435C10.4899 11.8431 10.5089 11.9418 10.5466 12.034C10.5843 12.1262 10.64 12.2099 10.7105 12.2803C10.7809 12.3507 10.8646 12.4064 10.9568 12.4442C11.049 12.4819 11.1477 12.5008 11.2473 12.5C11.3469 12.4991 11.4453 12.4784 11.5368 12.4391C11.6283 12.3998 11.7111 12.3427 11.7802 12.271L17.0303 7.02103C17.1709 6.88039 17.2498 6.68966 17.2498 6.49078C17.2498 6.29191 17.1709 6.10118 17.0303 5.96053Z" fill="#8901FF"/>
</svg>
