<svg width="33" height="33" viewBox="0 0 33 33" fill="none" xmlns="http://www.w3.org/2000/svg">
<circle cx="16.5" cy="16.5" r="16.5" fill="white" fill-opacity="0.12"/>
<path d="M24.321 11.4737C23.7512 11.7236 23.1441 11.8893 22.5112 11.9697C23.1623 11.5809 23.6593 10.97 23.8929 10.2336C23.2858 10.5956 22.6155 10.8513 21.9012 10.9939C21.3247 10.3802 20.5032 10 19.6069 10C17.868 10 16.468 11.4114 16.468 13.1418C16.468 13.3907 16.4891 13.6301 16.5408 13.858C13.9295 13.7307 11.6189 12.4791 10.0667 10.5726C9.79573 11.0428 9.63678 11.5809 9.63678 12.1603C9.63678 13.248 10.1969 14.2123 11.0319 14.7706C10.5273 14.761 10.0322 14.6145 9.61284 14.3837V14.4182C9.61284 15.9445 10.7016 17.2123 12.1293 17.5044C11.8736 17.5743 11.595 17.6078 11.3058 17.6078C11.1047 17.6078 10.9017 17.5963 10.7112 17.5542C11.1181 18.7981 12.2729 19.7125 13.6461 19.7422C12.5774 20.5782 11.2206 21.0818 9.75168 21.0818C9.4941 21.0818 9.24705 21.0703 9 21.0387C10.3913 21.936 12.0403 22.4483 13.8184 22.4483C19.5983 22.4483 22.7582 17.6605 22.7582 13.5104C22.7582 13.3716 22.7534 13.2375 22.7467 13.1044C23.3701 12.662 23.8939 12.1095 24.321 11.4737Z" fill="white"/>
</svg>
